<?xml version="1.0" encoding="utf-8"?>
<!-- Generator: Adobe Illustrator 27.3.1, SVG Export Plug-In . SVG Version: 6.00 Build 0)  -->
<svg version="1.1" id="Calque_1" xmlns="http://www.w3.org/2000/svg" xmlns:xlink="http://www.w3.org/1999/xlink" x="0px" y="0px"
	 viewBox="0 0 285 117" style="enable-background:new 0 0 285 117;" xml:space="preserve">
<style type="text/css">
	.st0{fill:#505050;}
</style>
<path class="st0" d="M88.4,24.9c8.7,0,15.7,6,15.9,14.4c0.1,2.4-1.6,3.7-3.5,3.7c-1.8,0-3.3-1.3-3.4-3.5c-0.1-4.7-4.1-8.2-9.1-8.2
	c-4.7,0-8.3,3.3-8.3,7.9c0,5,3.3,7.1,10.2,9.7c7.4,2.7,14.1,5.8,14.1,15.3c0,8.2-6.4,14.8-15.3,14.8c-8.8,0-16-6.2-16-14.5
	c0-5.2,2.5-8.8,5-8.8c2.1,0,3.4,1.4,3.4,3.2c0,1.6-1.4,2.4-1.4,5.3c0,5.2,4.2,8.5,9,8.5c5,0,8.4-3.5,8.4-7.7c0-5.2-3.3-7.4-10.2-9.8
	c-7.7-2.8-14.1-6.1-14.1-15.3C73.1,31.4,79.8,24.9,88.4,24.9z"/>
<path class="st0" d="M123.9,78.8c-8.8,0-16.1-7.1-16.1-16c0-9.3,7.4-16.1,16.3-16.1c9.6,0,16.3,7.1,16.3,16.9v11.8
	c0,2-1.6,3.4-3.5,3.4c-1.9,0-3.6-1.4-3.6-3.4V63.7c0-6.4-3.7-10.8-9.4-10.8c-5.1,0-9.2,4.3-9.2,9.8c0,5.1,4,9.5,9,9.5
	c1.9,0,2.7-0.5,3.8-0.5c1.5,0,3.2,1.3,3.2,3.2C130.8,77.5,127.8,78.8,123.9,78.8z"/>
<path class="st0" d="M160.4,102.9c-9.1,0-16.6-6.5-16.6-14.9c0-2.8,1.6-4.1,3.5-4.1c1.9,0,3.4,1.2,3.5,3.6c0.1,5.3,4.3,9.2,9.6,9.2
	c5.6,0,9.3-3.6,9.3-8.2c0-5.3-4.1-7.5-11-9.7c-8-2.6-14.9-6.2-14.9-16.1c0-9.1,7-16.1,16.1-16.1c9.2,0,16.7,6.7,16.7,15.4
	c0,5.4-2.2,9.5-5.2,9.5c-2,0-3.4-1.5-3.4-3.2c0-1.9,1.6-2.7,1.6-6c0-5.6-4.4-9.3-9.7-9.3c-5.1,0-9.2,3.9-9.2,9
	c0,5.8,4.1,8.2,11,10.5c7.9,2.6,14.9,5.8,14.9,15.3C176.6,96.3,169.8,102.9,160.4,102.9z"/>
<path class="st0" d="M196.5,78.8c-9.1,0-16.6-7.1-16.6-16.1c0-8.9,7.2-16.1,16.1-16.1c9,0,15.8,6.2,15.8,14.2c0,3.1-2.2,5-5.8,5
	h-9.3c-1.9,0-3.2-1.3-3.2-3c0-1.6,1.4-2.9,3.2-2.9h7c0.6,0,1.1-0.3,1.1-1c0-2.4-3-6-8.6-6c-5.2,0-9.4,4.5-9.4,9.8
	c0,5.4,4.3,9.7,9.7,9.7c6.2,0,8.2-3.7,10.7-3.7c2.1,0,3.2,1.4,3.2,2.9c0,1.5-1,2.8-3.4,4.3C204.7,77.5,201,78.8,196.5,78.8z"/>
</svg>
